<?xml version="1.0" encoding="utf-8"?>
<!-- Generator: Adobe Illustrator 18.0.0, SVG Export Plug-In . SVG Version: 6.00 Build 0)  -->
<!DOCTYPE svg PUBLIC "-//W3C//DTD SVG 1.1//EN" "http://www.w3.org/Graphics/SVG/1.1/DTD/svg11.dtd">
<svg version="1.1" id="Layer_1" xmlns:sketch="http://www.bohemiancoding.com/sketch/ns"
	 xmlns="http://www.w3.org/2000/svg" xmlns:xlink="http://www.w3.org/1999/xlink" x="0px" y="0px" viewBox="0 0 276 372"
	 enable-background="new 0 0 276 372" xml:space="preserve">
<title>Slice 1</title>
<description>Created with Sketch.</description>
<linearGradient id="Rectangle-path_3_" gradientUnits="userSpaceOnUse" x1="-498.4304" y1="585.5034" x2="-498.4304" y2="584.6983" gradientTransform="matrix(242 0 0 -157.9 120760 92499.2969)">
	<stop  offset="2.809000e-02" style="stop-color:#4D285A"/>
	<stop  offset="0.4831" style="stop-color:#AE87BD"/>
	<stop  offset="0.8757" style="stop-color:#EBBB7C"/>
	<stop  offset="1" style="stop-color:#FFCC66"/>
</linearGradient>
<rect id="Rectangle-path" x="27.8" y="37.2" sketch:type="MSShapeGroup" fill="url(#Rectangle-path_3_)" width="224.2" height="146.3">
</rect>
<linearGradient id="Rectangle-path_4_" gradientUnits="userSpaceOnUse" x1="-498.4304" y1="585.683" x2="-498.4304" y2="584.972" gradientTransform="matrix(242 0 0 -191.1 120760 112144.7031)">
	<stop  offset="0" style="stop-color:#FFCC66"/>
	<stop  offset="8.395872e-02" style="stop-color:#F8BE7D"/>
	<stop  offset="0.171" style="stop-color:#F4B48E"/>
	<stop  offset="0.236" style="stop-color:#F2B094"/>
	<stop  offset="0.4494" style="stop-color:#A0AEC1"/>
	<stop  offset="0.6966" style="stop-color:#98A7AD"/>
	<stop  offset="1" style="stop-color:#497692"/>
</linearGradient>
<rect id="Rectangle-path_1_" x="27.8" y="182.7" sketch:type="MSShapeGroup" fill="url(#Rectangle-path_4_)" width="224.2" height="177">
</rect>
<linearGradient id="Rectangle-path_5_" gradientUnits="userSpaceOnUse" x1="-498.4679" y1="585.7586" x2="-498.4679" y2="586.4032" gradientTransform="matrix(246.6 0 0 -367.6 123058.6016 215575.2031)">
	<stop  offset="0" style="stop-color:#53A0FE"/>
	<stop  offset="1" style="stop-color:#3023AE"/>
</linearGradient>
<rect id="Rectangle-path_2_" x="22.2" y="20.5" sketch:type="MSShapeGroup" fill="url(#Rectangle-path_5_)" width="228.5" height="340.6">
</rect>
<g id="Group" sketch:type="MSShapeGroup">
	<path id="Shape" fill="#FFFFFF" d="M176.5,125.2c-2.6-8.6-10-18.4-21.7-27.2c-3.2-2.5-7.5-3.7-10.9-7.8v-4.8h-4.3v110
		c-5.5-5.7-15.4-7.8-25.2-4.5c-12.6,4.2-20.1,15.6-16.9,25.4c3.2,9.8,16.1,14.5,28.7,10.4c12-4,19.5-14.5,17.2-24.1h0.4v-84.1
		c2.8,5.4,8.8,16,17,24.7c0,0,7.5,7.7,6.9,20.8c-0.1,2.7-0.6,5.6-1.5,8.7c0,0-2.3,10.3,5.1,18c0,0-1.2-4.7-1.1-9
		c0-1.7,0.4-3.2,1-4.4c0,0,4.3-8.4,6.8-19.5c0.6-3,1.2-6.9,1-15.9C179.1,141.5,179.3,134.4,176.5,125.2L176.5,125.2z"/>
	<path id="Shape_1_" fill="#FFFFFF" d="M12,15.9v350.2h252V15.9H12L12,15.9z M241.1,147.5c-0.4,10.8-2.4,21.3-5.9,31.1
		c-22.1,72.6-97.7,167.4-97.7,167.4s-75.6-94.9-97.7-167.5c-3.5-9.8-5.6-20.3-5.9-31.1c-0.1-1.2-0.1-2.5-0.1-3.7
		c0-57.2,46.5-103.6,103.8-103.6c57.3,0,103.8,46.4,103.8,103.7C241.2,145,241.2,146.3,241.1,147.5L241.1,147.5z"/>
</g>
</svg>
